<svg width="24" height="24" viewBox="0 0 24 24" fill="none" xmlns="http://www.w3.org/2000/svg">
    <path d="M10.75 2.45007C11.45 1.86007 12.58 1.86007 13.26 2.45007L14.84 3.80007C15.14 4.05007 15.71 4.26007 16.11 4.26007H17.81C18.87 4.26007 19.74 5.13007 19.74 6.19007V7.89007C19.74 8.29007 19.95 8.85007 20.2 9.15007L21.55 10.7301C22.14 11.4301 22.14 12.5601 21.55 13.2401L20.2 14.8201C19.95 15.1201 19.74 15.6801 19.74 16.0801V17.7801C19.74 18.8401 18.87 19.7101 17.81 19.7101H16.11C15.71 19.7101 15.15 19.9201 14.85 20.1701L13.27 21.5201C12.57 22.1101 11.44 22.1101 10.76 21.5201L9.18001 20.1701C8.88001 19.9201 8.31 19.7101 7.92 19.7101H6.17C5.11 19.7101 4.24 18.8401 4.24 17.7801V16.0701C4.24 15.6801 4.04 15.1101 3.79 14.8201L2.44 13.2301C1.86 12.5401 1.86 11.4201 2.44 10.7301L3.79 9.14007C4.04 8.84007 4.24 8.28007 4.24 7.89007V6.20007C4.24 5.14007 5.11 4.27007 6.17 4.27007H7.9C8.3 4.27007 8.86 4.06007 9.16 3.81007L10.75 2.45007Z" stroke="#01BFA5" stroke-width="1.5" stroke-linecap="round" stroke-linejoin="round"/>
    <path fill-rule="evenodd" clip-rule="evenodd" d="M15.7785 9.21783C16.0724 9.5097 16.074 9.98457 15.7822 10.2785L11.3134 14.7785C11.1726 14.9203 10.9811 15 10.7812 15C10.5814 15 10.3899 14.9203 10.2491 14.7785L8.21783 12.733C7.92595 12.4391 7.92761 11.9642 8.22152 11.6724C8.51543 11.3805 8.9903 11.3822 9.28217 11.6761L10.7812 13.1856L14.7178 9.22152C15.0097 8.92761 15.4846 8.92595 15.7785 9.21783Z" fill="#01BFA5"/>
    </svg>
    